0
SECTION
2
HEADER
9
$INSUNITS
70
4
9
$ACADVER
1
AC1014
9
$HANDSEED
5
FFFF
0
ENDSEC
0
SECTION
2
TABLES
0
TABLE
2
VPORT
5
8
100
AcDbSymbolTable
0
ENDTAB
0
TABLE
2
LTYPE
5
5
100
AcDbSymbolTable
0
LTYPE
5
14
100
AcDbSymbolTableRecord
100
AcDbLinetypeTableRecord
2
BYBLOCK
70
0
0
LTYPE
5
15
100
AcDbSymbolTableRecord
100
AcDbLinetypeTableRecord
2
BYLAYER
70
0
0
ENDTAB
0
TABLE
2
LAYER
5
2
100
AcDbSymbolTable
70
2
0
LAYER
5
50
100
AcDbSymbolTableRecord
100
AcDbLayerTableRecord
2
0
70
0
6
CONTINUOUS
0
ENDTAB
0
TABLE
2
STYLE
5
3
100
AcDbSymbolTable
70
1
0
STYLE
5
11
100
AcDbSymbolTableRecord
100
AcDbTextStyleTableRecord
2
STANDARD
70
0
0
ENDTAB
0
TABLE
2
VIEW
5
6
100
AcDbSymbolTable
70
0
0
ENDTAB
0
TABLE
2
UCS
5
7
100
AcDbSymbolTable
70
0
0
ENDTAB
0
TABLE
2
APPID
5
9
100
AcDbSymbolTable
70
2
0
APPID
5
12
100
AcDbSymbolTableRecord
100
AcDbRegAppTableRecord
2
ACAD
70
0
0
ENDTAB
0
TABLE
2
DIMSTYLE
5
A
100
AcDbSymbolTable
70
1
0
ENDTAB
0
TABLE
2
BLOCK_RECORD
5
1
100
AcDbSymbolTable
70
1
0
BLOCK_RECORD
5
1F
100
AcDbSymbolTableRecord
100
AcDbBlockTableRecord
2
*MODEL_SPACE
0
BLOCK_RECORD
5
1B
100
AcDbSymbolTableRecord
100
AcDbBlockTableRecord
2
*PAPER_SPACE
0
ENDTAB
0
ENDSEC
0
SECTION
2
BLOCKS
0
BLOCK
5
20
100
AcDbEntity
100
AcDbBlockBegin
2
*MODEL_SPACE
0
ENDBLK
5
21
100
AcDbEntity
100
AcDbBlockEnd
0
BLOCK
5
1C
100
AcDbEntity
100
AcDbBlockBegin
2
*PAPER_SPACE
0
ENDBLK
5
1D
100
AcDbEntity
100
AcDbBlockEnd
0
ENDSEC
0
SECTION
2
ENTITIES
0
LINE
5
100
100
AcDbEntity
8
0
100
AcDbLine
10
-143.65233790092051
20
-205.92822670904803
30
5.00421925294398e-15
11
-123.00000381448501
21
-205.92822674363561
31
1.7763568394002972e-14
0
LINE
5
101
100
AcDbEntity
8
0
100
AcDbLine
10
-123.00000381448501
20
-205.92822674363561
30
1.7763568394002972e-14
11
-123.00000381448501
21
-206.00000939945559
31
1.6512613111899513e-14
0
LINE
5
102
100
AcDbEntity
8
0
100
AcDbLine
10
-123.00000381448501
20
-206.00000939945559
30
1.6512613111899513e-14
11
123.00000687273109
21
-206.00000939942535
31
1.125859538774149e-15
0
LINE
5
103
100
AcDbEntity
8
0
100
AcDbLine
10
123.00000687273109
20
-206.00000939942535
30
1.125859538774149e-15
11
141.00000000021399
21
-206.00001875762717
31
3.5527136788005893e-14
0
ARC
5
104
100
AcDbEntity
8
0
100
AcDbCircle
10
141.00000000021402
20
-202.99999999999912
30
-6.1395333261771096e-13
40
2.9999999999999716
210
-2.5966671463525267e-29
220
-4.3853809472693762e-15
230
1
100
AcDbArc
50
269.99999999999943
51
360
0
LWPOLYLINE
5
105
100
AcDbEntity
8
0
100
AcDbPolyline
90
10
70
1
43
0.0
10
144.00000000021399
20
-202.9999999999992
10
144.00000000021402
20
123.00000000000102
42
0.41421356237309331
10
141.00000000021399
20
126.00000000000102
10
-142.99999999978604
20
126.00000000000102
42
0.41421356237308288
10
-145.99999999978601
20
123.00000000000102
10
-145.99999999978601
20
-202.99999999999915
10
-145.99999999978604
20
123.00000000000102
42
-0.41421356237309509
10
-142.99999999978604
20
126.00000000000102
10
141.00000000021399
20
126.00000000000102
42
-0.41421356237309509
10
144.00000000021402
20
123.00000000000102
0
ARC
5
106
100
AcDbEntity
8
0
100
AcDbCircle
10
-142.99999999978604
20
-202.99999999999915
30
-5.1514348342607243e-13
40
2.9999999999999893
210
0
220
0
230
1
100
AcDbArc
50
180
51
257.44097349443615
0
CIRCLE
5
107
100
AcDbEntity
8
0
100
AcDbCircle
10
129.77817840797036
20
-188.99999999999923
30
-1.3394840792102512e-12
40
1.6000000000000014
210
-1.5358085173981037e-15
220
-1.5777218104419989e-30
230
1
0
CIRCLE
5
108
100
AcDbEntity
8
0
100
AcDbCircle
10
132.00009570619667
20
115.1240976277586
30
7.2164496600633676e-15
40
1.6000000000000014
210
-1.5358085173981197e-15
220
-1.5777218104420268e-30
230
1
0
CIRCLE
5
109
100
AcDbEntity
8
0
100
AcDbCircle
10
136.05000000021766
20
-182.72817840775201
30
-1.2645440250480531e-12
40
1.6000000000000014
210
-1.5358085173981037e-15
220
-1.5777218104419989e-30
230
1
0
CIRCLE
5
110
100
AcDbEntity
8
0
100
AcDbCircle
10
132.00009570619667
20
106.12409762775857
30
1.9984014443252698e-14
40
1.6000000000000014
210
-1.5358085173981197e-15
220
-1.5777218104420268e-30
230
1
0
CIRCLE
5
111
100
AcDbEntity
8
0
100
AcDbCircle
10
-129.07107162635043
20
-188.99999999999937
30
-1.7369439220260578e-12
40
1.6000000000000014
210
-1.5358085173981037e-15
220
-1.5777218104419989e-30
230
1
0
CIRCLE
5
112
100
AcDbEntity
8
0
100
AcDbCircle
10
-134.99999999978425
20
-183.07107162656567
30
-1.6847634398686755e-12
40
1.6000000000000014
210
-1.5358085173981037e-15
220
-1.5777218104419989e-30
230
1
0
CIRCLE
5
113
100
AcDbEntity
8
0
100
AcDbCircle
10
-128.00007900828288
20
-0.25440470188800951
30
-2.3203661214665802e-13
40
1.6000000000000014
210
-1.5358085173980495e-15
220
-1.5777218104420268e-30
230
1
0
CIRCLE
5
114
100
AcDbEntity
8
0
100
AcDbCircle
10
-128.00007900828288
20
-79.746159301551245
30
-1.2212453270876722e-13
40
1.6000000000000014
210
-1.5358085173980495e-15
220
-1.5777218104420268e-30
230
1
0
CIRCLE
5
115
100
AcDbEntity
8
0
100
AcDbCircle
10
-128.00007900828297
20
8.3065484993025223
30
-2.4369395390522221e-13
40
1.6000000000000014
210
-1.5358085173980495e-15
220
-1.5777218104420268e-30
230
1
0
CIRCLE
5
116
100
AcDbEntity
8
0
100
AcDbCircle
10
-128.00007900828294
20
-88.307112502741703
30
-1.1046719095020305e-13
40
1.6000000000000014
210
-1.5358085173980495e-15
220
-1.5777218104420268e-30
230
1
0
CIRCLE
5
117
100
AcDbEntity
8
0
100
AcDbCircle
10
-133.00000381448535
20
115.92822676733967
30
-4.0079051188968227e-13
40
1.6000000000000014
210
-1.5358085173980495e-15
220
-1.5777218104420268e-30
230
1
0
CIRCLE
5
118
100
AcDbEntity
8
0
100
AcDbCircle
10
-132.86869745485799
20
105.92908887250485
30
-3.8691272408186776e-13
40
1.6000000000000014
210
-1.5358085173980495e-15
220
-1.5777218104420268e-30
230
1
0
CIRCLE
5
119
100
AcDbEntity
8
0
100
AcDbCircle
10
129.77817840797036
20
-188.99999999999923
30
1.2621774483536189e-27
40
1.6000000000000014
210
-2.4651903288156598e-30
220
4.7331654313260736e-30
230
1
0
CIRCLE
5
120
100
AcDbEntity
8
0
100
AcDbCircle
10
132.00009570619667
20
115.12409762775847
30
-2.2876966251409342e-28
40
1.6000000000000014
210
-2.4651903288156598e-30
220
4.7331654313260736e-30
230
1
0
CIRCLE
5
121
100
AcDbEntity
8
0
100
AcDbCircle
10
136.05000000021766
20
-182.72817840775201
30
1.0097419586828951e-27
40
1.6000000000000014
210
-2.4651903288156598e-30
220
4.7331654313260736e-30
230
1
0
CIRCLE
5
122
100
AcDbEntity
8
0
100
AcDbCircle
10
132.00009570619667
20
106.12409762775846
30
-1.8932661725304283e-28
40
1.6000000000000014
210
-2.4651903288156598e-30
220
4.7331654313260736e-30
230
1
0
CIRCLE
5
123
100
AcDbEntity
8
0
100
AcDbCircle
10
-129.07107162635043
20
-188.99999999999937
30
7.5730646901217133e-28
40
1.6000000000000014
210
-2.4651903288156598e-30
220
4.7331654313260736e-30
230
1
0
CIRCLE
5
124
100
AcDbEntity
8
0
100
AcDbCircle
10
-134.99999999978425
20
-183.07107162656567
30
5.0487097934144756e-28
40
1.6000000000000014
210
-2.4651903288156598e-30
220
4.7331654313260736e-30
230
1
0
CIRCLE
5
125
100
AcDbEntity
8
0
100
AcDbCircle
10
-128.00007900828288
20
-0.25440470188808045
30
-3.1554436208840472e-28
40
1.6000000000000014
210
-2.4651903288156598e-30
220
4.7331654313260736e-30
230
1
0
CIRCLE
5
126
100
AcDbEntity
8
0
100
AcDbCircle
10
-128.00007900828288
20
-79.746159301551273
30
7.8886090522101181e-29
40
1.6000000000000014
210
-2.4651903288156598e-30
220
4.7331654313260736e-30
230
1
0
CIRCLE
5
127
100
AcDbEntity
8
0
100
AcDbCircle
10
-128.00007900828297
20
8.3065484993024477
30
-3.4709879829724519e-28
40
1.6000000000000014
210
-2.4651903288156598e-30
220
4.7331654313260736e-30
230
1
0
CIRCLE
5
128
100
AcDbEntity
8
0
100
AcDbCircle
10
-128.00007900828294
20
-88.307112502741745
30
1.1044052673094165e-28
40
1.6000000000000014
210
-2.4651903288156598e-30
220
4.7331654313260736e-30
230
1
0
CIRCLE
5
129
100
AcDbEntity
8
0
100
AcDbCircle
10
-133.00000381448535
20
115.92822676733954
30
-8.8352421384753322e-28
40
1.6000000000000014
210
-2.4651903288156598e-30
220
4.7331654313260736e-30
230
1
0
CIRCLE
5
130
100
AcDbEntity
8
0
100
AcDbCircle
10
-132.86869745485799
20
105.92908887250472
30
-8.2041534142985228e-28
40
1.6000000000000014
210
-2.4651903288156598e-30
220
4.7331654313260736e-30
230
1
0
LINE
5
131
100
AcDbEntity
8
0
100
AcDbLine
10
-143.65233790092051
20
-205.92822670904798
30
6.3897733322901956e-28
11
-123.00000381448501
21
-205.92822674363558
31
6.882811398053328e-28
0
LINE
5
132
100
AcDbEntity
8
0
100
AcDbLine
10
-123.00000381448501
20
-205.92822674363558
30
6.882811398053328e-28
11
-123.00000381448501
21
-206.00000939945556
31
6.8655550657516184e-28
0
LINE
5
133
100
AcDbEntity
8
0
100
AcDbLine
10
-123.00000381448501
20
-206.00000939945556
30
6.8655550657516184e-28
11
123.00000687273109
21
-206.00000939942532
31
1.2680939051427765e-27
0
LINE
5
134
100
AcDbEntity
8
0
100
AcDbLine
10
123.00000687273109
20
-206.00000939942532
30
1.2680939051427765e-27
11
141.00000000021399
21
-206.00001875762715
31
1.3126645300233834e-27
0
ARC
5
135
100
AcDbEntity
8
0
100
AcDbCircle
10
141.00000000021402
20
-202.99999999999909
30
1.3883951931889808e-27
40
2.9999999999999716
210
-2.3665827156630368e-30
220
4.6016886137892935e-30
230
1
100
AcDbArc
50
269.99999999999943
51
360
0
LINE
5
136
100
AcDbEntity
8
0
100
AcDbLine
10
144.00000000021399
20
-202.99999999999915
30
1.3954949413359699e-27
11
144.00000000021402
21
123.0000000000009
31
-2.52435489670724e-28
0
ARC
5
137
100
AcDbEntity
8
0
100
AcDbCircle
10
141.00000000021404
20
123.00000000000095
30
-1.893266172530427e-28
40
2.9999999999999538
210
2.1036290805894092e-29
220
-4.0426556554982134e-43
230
1
100
AcDbArc
50
0
51
90.000000000001094
0
LINE
5
138
100
AcDbEntity
8
0
100
AcDbLine
10
141.00000000021399
20
126.00000000000091
30
-1.8932661725304286e-28
11
-142.99999999978604
21
126.00000000000091
31
2.5716124462702645e-58
0
ARC
5
139
100
AcDbEntity
8
0
100
AcDbCircle
10
-142.99999999978604
20
123.0000000000009
30
-8.835242138475334e-28
40
3.0000000000000071
210
3.4652602724449412e-44
220
-2.9450807128251043e-28
230
1
100
AcDbArc
50
90
51
180
0
LINE
5
140
100
AcDbEntity
8
0
100
AcDbLine
10
-145.99999999978601
20
123.0000000000009
30
-8.8352421384753322e-28
11
-145.99999999978601
21
-202.99999999999912
31
5.8375706986354892e-28
0
ARC
5
141
100
AcDbEntity
8
0
100
AcDbCircle
10
-142.99999999978607
20
-202.99999999999915
30
6.3108872417680944e-28
40
2.9999999999999361
210
-1.57772181044205e-29
220
1.8683979524331609e-43
230
1
100
AcDbArc
50
180
51
257.44097349443643
0
CIRCLE
5
142
100
AcDbEntity
8
0
100
AcDbCircle
10
132.00009570619667
20
115.12409762775847
30
-2.2876966251409342e-28
40
1.6000000000000014
210
0
220
0
230
1
0
CIRCLE
5
143
100
AcDbEntity
8
0
100
AcDbCircle
10
132.00009570619667
20
106.12409762775846
30
-1.8932661725304283e-28
40
1.6000000000000014
210
0
220
0
230
1
0
CIRCLE
5
144
100
AcDbEntity
8
0
100
AcDbCircle
10
-133.00000381448535
20
115.92822676733954
30
-8.8352421384753322e-28
40
1.6000000000000014
210
0
220
0
230
1
0
CIRCLE
5
145
100
AcDbEntity
8
0
100
AcDbCircle
10
-132.86869745485799
20
105.92908887250472
30
-8.2041534142985228e-28
40
1.6000000000000014
210
0
220
0
230
1
0
CIRCLE
5
146
100
AcDbEntity
8
0
100
AcDbCircle
10
-128.00007900828297
20
8.3065484993024477
30
-3.4709879829724519e-28
40
1.6000000000000014
210
0
220
0
230
1
0
CIRCLE
5
147
100
AcDbEntity
8
0
100
AcDbCircle
10
-128.00007900828288
20
-0.25440470188808045
30
-3.1554436208840472e-28
40
1.6000000000000014
210
0
220
0
230
1
0
CIRCLE
5
148
100
AcDbEntity
8
0
100
AcDbCircle
10
-128.00007900828288
20
-79.746159301551273
30
7.8886090522101181e-29
40
1.6000000000000014
210
0
220
0
230
1
0
CIRCLE
5
149
100
AcDbEntity
8
0
100
AcDbCircle
10
-128.00007900828294
20
-88.307112502741745
30
1.1044052673094165e-28
40
1.6000000000000014
210
0
220
0
230
1
0
CIRCLE
5
150
100
AcDbEntity
8
0
100
AcDbCircle
10
-134.99999999978425
20
-183.07107162656567
30
5.0487097934144756e-28
40
1.6000000000000014
210
0
220
0
230
1
0
CIRCLE
5
151
100
AcDbEntity
8
0
100
AcDbCircle
10
-129.07107162635043
20
-188.99999999999937
30
7.5730646901217133e-28
40
1.6000000000000014
210
0
220
0
230
1
0
ARC
5
152
100
AcDbEntity
8
0
100
AcDbCircle
10
-142.99999999978604
20
-202.99999999999915
30
-5.1514348342607243e-13
40
2.9999999999999893
210
0
220
0
230
1
100
AcDbArc
50
180
51
282.55822047138082
0
CIRCLE
5
153
100
AcDbEntity
8
0
100
AcDbCircle
10
129.77817840797036
20
-188.99999999999923
30
1.2621774483536189e-27
40
1.6000000000000014
210
0
220
0
230
1
0
CIRCLE
5
154
100
AcDbEntity
8
0
100
AcDbCircle
10
136.05000000021766
20
-182.72817840775201
30
1.0097419586828951e-27
40
1.6000000000000014
210
0
220
0
230
1
0
ENDSEC
0
SECTION
2
OBJECTS
0
DICTIONARY
5
C
100
AcDbDictionary
3
ACAD_GROUP
350
D
3
ACAD_MLINESTYLE
350
17
0
DICTIONARY
5
D
100
AcDbDictionary
0
DICTIONARY
5
1A
330
C
100
AcDbDictionary
0
DICTIONARY
5
17
100
AcDbDictionary
0
ENDSEC
0
EOF
